<svg width="20" height="29" viewBox="0 0 20 29" fill="none" xmlns="http://www.w3.org/2000/svg">
<path d="M18.3333 8.99984C18.3333 6.69817 17.4 4.61484 15.8933 3.10817C14.385 1.59984 12.3017 0.666504 10 0.666504C7.69833 0.666504 5.615 1.59984 4.10667 3.10817C2.6 4.61484 1.66667 6.69817 1.66667 8.99984C1.66667 11.3015 2.6 13.3848 4.10667 14.8915C5.615 16.3998 7.69833 17.3332 10 17.3332C12.3017 17.3332 14.385 16.3998 15.8933 14.8915C16.6681 14.1186 17.2825 13.2002 17.7012 12.1891C18.12 11.1781 18.3348 10.0942 18.3333 8.99984ZM0 25.6665C0 27.3332 3.75 28.9998 10 28.9998C15.8633 28.9998 20 27.3332 20 25.6665C20 22.3332 16.0767 18.9998 10 18.9998C3.75 18.9998 0 22.3332 0 25.6665Z" fill="#00FFF5"/>
</svg>
