<svg width="26" height="28" viewBox="0 0 26 28" fill="none" xmlns="http://www.w3.org/2000/svg">
<path d="M4.30769 8.61539C4.30769 6.33044 5.21538 4.13909 6.83108 2.52339C8.44678 0.90769 10.6381 0 12.9231 0C15.208 0 17.3994 0.90769 19.0151 2.52339C20.6308 4.13909 21.5385 6.33044 21.5385 8.61539V12.8039C21.5385 13.8133 21.8658 14.7955 22.4718 15.6039L25.4154 19.5282C25.6554 19.8482 25.8015 20.2287 25.8374 20.6271C25.8734 21.0255 25.7976 21.426 25.6188 21.7837C25.4399 22.1415 25.1649 22.4424 24.8247 22.6527C24.4844 22.863 24.0923 22.9744 23.6923 22.9744H2.15385C1.75385 22.9744 1.36176 22.863 1.0215 22.6527C0.681247 22.4424 0.406272 22.1415 0.227389 21.7837C0.0485055 21.426 -0.0272177 21.0255 0.00870403 20.6271C0.0446258 20.2287 0.190773 19.8482 0.43077 19.5282L3.37436 15.6039C3.9802 14.7961 4.30769 13.8136 4.30769 12.8039V8.61539ZM12.9231 28C11.8407 27.9998 10.7873 27.6504 9.91933 27.0037C9.05141 26.3569 8.41534 25.4474 8.10564 24.4103H17.7405C17.4308 25.4474 16.7947 26.3569 15.9268 27.0037C15.0589 27.6504 14.0055 27.9998 12.9231 28Z" fill="#FFE605"/>
</svg>
