<svg width="20" height="20" viewBox="0 0 20 20" fill="none" xmlns="http://www.w3.org/2000/svg">
<path fill-rule="evenodd" clip-rule="evenodd" d="M10 20C4.477 20 0 15.523 0 10C0 4.477 4.477 0 10 0C15.523 0 20 4.477 20 10C20 15.523 15.523 20 10 20ZM10 18C12.1217 18 14.1566 17.1571 15.6569 15.6569C17.1571 14.1566 18 12.1217 18 10C18 7.87827 17.1571 5.84344 15.6569 4.34315C14.1566 2.84285 12.1217 2 10 2C7.87827 2 5.84344 2.84285 4.34315 4.34315C2.84285 5.84344 2 7.87827 2 10C2 12.1217 2.84285 14.1566 4.34315 15.6569C5.84344 17.1571 7.87827 18 10 18ZM14 15H12.661C12.661 15 12.244 12.333 10 12.333C7.756 12.333 7.333 15 7.333 15H6C6 13.9391 6.42143 12.9217 7.17157 12.1716C7.92172 11.4214 8.93913 11 10 11C11.0609 11 12.0783 11.4214 12.8284 12.1716C13.5786 12.9217 14 13.9391 14 15ZM8.506 6.99C8.72864 7.22871 8.86734 7.53352 8.90105 7.8582C8.93476 8.18287 8.86164 8.50968 8.69279 8.78903C8.52393 9.06838 8.26857 9.28503 7.96543 9.40611C7.6623 9.52718 7.32794 9.54606 7.0131 9.4599C6.69826 9.37373 6.42012 9.18721 6.22089 8.92865C6.02165 8.67009 5.9122 8.35359 5.90913 8.02719C5.90607 7.70078 6.00956 7.38229 6.2039 7.12003C6.39825 6.85777 6.67283 6.66606 6.986 6.574L5.33 5.97C5.20535 5.92465 5.10382 5.83164 5.04774 5.71142C4.99167 5.59121 4.98565 5.45365 5.031 5.329C5.07635 5.20435 5.16936 5.10282 5.28958 5.04674C5.40979 4.99067 5.54735 4.98465 5.672 5.03L8.492 6.056C8.58715 6.09062 8.66954 6.15331 8.72829 6.23577C8.78703 6.31824 8.81935 6.4166 8.82098 6.51784C8.82261 6.61907 8.79346 6.71842 8.73739 6.80273C8.68133 6.88704 8.60099 6.95234 8.507 6.99H8.506ZM11.403 6.99C11.3086 6.95265 11.2279 6.88741 11.1715 6.80298C11.1152 6.71855 11.0859 6.61895 11.0877 6.51746C11.0894 6.41598 11.1221 6.31743 11.1813 6.23498C11.2405 6.15253 11.3234 6.09009 11.419 6.056L14.239 5.03C14.3007 5.00754 14.3663 4.99746 14.4319 5.00034C14.4975 5.00321 14.5619 5.01898 14.6214 5.04674C14.6809 5.07451 14.7344 5.11373 14.7788 5.16216C14.8232 5.21058 14.8575 5.26728 14.88 5.329C14.9025 5.39072 14.9125 5.45626 14.9097 5.52188C14.9068 5.58749 14.891 5.6519 14.8633 5.71142C14.8355 5.77095 14.7963 5.82442 14.7478 5.86878C14.6994 5.91315 14.6427 5.94754 14.581 5.97L12.922 6.573C13.2353 6.66474 13.5101 6.85619 13.7047 7.11829C13.8994 7.38038 14.0032 7.69882 14.0004 8.02526C13.9976 8.3517 13.8884 8.66833 13.6894 8.92709C13.4904 9.18585 13.2123 9.37261 12.8975 9.45903C12.5827 9.54545 12.2483 9.52682 11.9451 9.40595C11.6418 9.28508 11.3863 9.06857 11.2172 8.7893C11.0482 8.51003 10.9749 8.18323 11.0084 7.8585C11.0419 7.53377 11.1805 7.22884 11.403 6.99Z" fill="#B0B0B0"/>
</svg>
