<svg width="20" height="20" viewBox="0 0 20 20" fill="none" xmlns="http://www.w3.org/2000/svg">
<path d="M8 2C6.93913 2 5.92172 2.42143 5.17157 3.17157C4.42143 3.92172 4 4.93913 4 6C4 7.06087 4.42143 8.07828 5.17157 8.82843C5.92172 9.57857 6.93913 10 8 10C9.06087 10 10.0783 9.57857 10.8284 8.82843C11.5786 8.07828 12 7.06087 12 6C12 4.93913 11.5786 3.92172 10.8284 3.17157C10.0783 2.42143 9.06087 2 8 2ZM2 6C2 4.4087 2.63214 2.88258 3.75736 1.75736C4.88258 0.632141 6.4087 0 8 0C9.5913 0 11.1174 0.632141 12.2426 1.75736C13.3679 2.88258 14 4.4087 14 6C14 7.5913 13.3679 9.11742 12.2426 10.2426C11.1174 11.3679 9.5913 12 8 12C6.4087 12 4.88258 11.3679 3.75736 10.2426C2.63214 9.11742 2 7.5913 2 6ZM14.828 1.757C14.9209 1.66402 15.0312 1.59026 15.1526 1.53994C15.274 1.48962 15.4041 1.46371 15.5355 1.46371C15.6669 1.46371 15.797 1.48962 15.9184 1.53994C16.0398 1.59026 16.1501 1.66402 16.243 1.757C16.8003 2.31416 17.2423 2.97565 17.5439 3.70366C17.8455 4.43168 18.0007 5.21198 18.0007 6C18.0007 6.78802 17.8455 7.56832 17.5439 8.29634C17.2423 9.02435 16.8003 9.68583 16.243 10.243C16.1501 10.3359 16.0398 10.4096 15.9184 10.4599C15.797 10.5102 15.6669 10.5361 15.5355 10.5361C15.4041 10.5361 15.274 10.5102 15.1526 10.4599C15.0312 10.4096 14.9209 10.3359 14.828 10.243C14.7351 10.1501 14.6614 10.0398 14.6111 9.9184C14.5608 9.797 14.5349 9.66689 14.5349 9.5355C14.5349 9.4041 14.5608 9.274 14.6111 9.1526C14.6614 9.03121 14.7351 8.92091 14.828 8.828C15.5779 8.07789 15.9991 7.06066 15.9991 6C15.9991 4.93934 15.5779 3.92211 14.828 3.172C14.735 3.07913 14.6613 2.96884 14.6109 2.84744C14.5606 2.72604 14.5347 2.59592 14.5347 2.4645C14.5347 2.33308 14.5606 2.20296 14.6109 2.08156C14.6613 1.96016 14.735 1.84987 14.828 1.757ZM15.53 14.757C15.5945 14.5 15.7583 14.279 15.9856 14.1427C16.2128 14.0064 16.4849 13.9659 16.742 14.03C18.07 14.362 18.911 15.21 19.394 16.178C19.862 17.113 20 18.158 20 19C20 19.2652 19.8946 19.5196 19.7071 19.7071C19.5196 19.8946 19.2652 20 19 20C18.7348 20 18.4804 19.8946 18.2929 19.7071C18.1054 19.5196 18 19.2652 18 19C18 18.343 17.888 17.637 17.606 17.072C17.339 16.539 16.929 16.138 16.257 15.97C16 15.9055 15.779 15.7417 15.6427 15.5144C15.5064 15.2872 15.4659 15.0141 15.53 14.757ZM4.5 16C3.24 16 2 17.213 2 19C2 19.2652 1.89464 19.5196 1.70711 19.7071C1.51957 19.8946 1.26522 20 1 20C0.734784 20 0.48043 19.8946 0.292893 19.7071C0.105357 19.5196 0 19.2652 0 19C0 16.368 1.893 14 4.5 14H11.5C14.107 14 16 16.368 16 19C16 19.2652 15.8946 19.5196 15.7071 19.7071C15.5196 19.8946 15.2652 20 15 20C14.7348 20 14.4804 19.8946 14.2929 19.7071C14.1054 19.5196 14 19.2652 14 19C14 17.213 12.76 16 11.5 16H4.5Z" fill="#B0B0B0"/>
</svg>
