<svg width="24" height="23" viewBox="0 0 24 23" fill="none" xmlns="http://www.w3.org/2000/svg">
<path d="M22.7735 4.16856L12.2735 0.668562C12.0954 0.613734 11.9048 0.613734 11.7266 0.668562L1.23758 4.16856H1.21571L1.10633 4.22325H1.0954L0.986021 4.28887C0.986021 4.29981 0.975084 4.29981 0.964146 4.31075L0.876646 4.38731L0.800084 4.47481C0.800084 4.48575 0.789146 4.48575 0.789146 4.49669L0.723521 4.59512C0.723521 4.60606 0.723521 4.60606 0.712584 4.617L0.668834 4.71544L0.636021 4.83575V4.86856C0.625233 4.91142 0.621538 4.95576 0.625084 4.99981V13.7498C0.625084 13.9819 0.717271 14.2044 0.881365 14.3685C1.04546 14.5326 1.26802 14.6248 1.50008 14.6248C1.73215 14.6248 1.95471 14.5326 2.1188 14.3685C2.2829 14.2044 2.37508 13.9819 2.37508 13.7498V6.21387L6.05008 7.43888C5.35967 8.544 4.99567 9.82176 5.00008 11.1248C5.00049 12.3099 5.30176 13.4755 5.87566 14.5123C6.44956 15.5492 7.27731 16.4234 8.28133 17.0529C6.1949 17.8422 4.41368 19.2749 3.1954 21.1436C3.07122 21.3399 3.02915 21.5772 3.07825 21.8043C3.12735 22.0314 3.26369 22.2301 3.4579 22.3576C3.5532 22.4208 3.66009 22.4644 3.77237 22.4859C3.88465 22.5075 4.00009 22.5065 4.11199 22.4831C4.2239 22.4597 4.33005 22.4143 4.42429 22.3496C4.51854 22.2849 4.599 22.2021 4.66102 22.1061C5.45522 20.8827 6.54264 19.8773 7.82438 19.1812C9.10613 18.4852 10.5415 18.1206 12.0001 18.1206C13.4586 18.1206 14.894 18.4852 16.1758 19.1812C17.4575 19.8773 18.5449 20.8827 19.3391 22.1061C19.419 22.2274 19.5278 22.3269 19.6558 22.3956C19.7837 22.4643 19.9267 22.5002 20.072 22.4998C20.2396 22.5016 20.4037 22.452 20.5423 22.3576C20.7365 22.2301 20.8728 22.0314 20.9219 21.8043C20.971 21.5772 20.9289 21.3399 20.8048 21.1436C19.5865 19.2749 17.8053 17.8422 15.7188 17.0529C16.7229 16.4234 17.5506 15.5492 18.1245 14.5123C18.6984 13.4755 18.9997 12.3099 19.0001 11.1248C19.0045 9.82176 18.6405 8.544 17.9501 7.43888L22.7735 5.83106C22.9486 5.77352 23.101 5.66218 23.2091 5.51292C23.3171 5.36366 23.3753 5.18409 23.3753 4.99981C23.3753 4.81554 23.3171 4.63597 23.2091 4.4867C23.101 4.33744 22.9486 4.2261 22.7735 4.16856ZM17.2501 11.1248C17.2501 12.5172 16.697 13.8526 15.7124 14.8371C14.7278 15.8217 13.3925 16.3748 12.0001 16.3748C10.6077 16.3748 9.27234 15.8217 8.28777 14.8371C7.30321 13.8526 6.75008 12.5172 6.75008 11.1248C6.75219 10.0045 7.1082 8.91354 7.76727 8.00762L11.7266 9.33106C11.9043 9.38949 12.0959 9.38949 12.2735 9.33106L16.2329 8.00762C16.892 8.91354 17.248 10.0045 17.2501 11.1248ZM16.2329 6.17012H16.222L12.0001 7.58106L7.77821 6.17012H7.76727L4.26727 4.99981L12.0001 2.41856L19.7329 4.99981L16.2329 6.17012Z" fill="#B0B0B0"/>
</svg>
