<svg width="22" height="22" viewBox="0 0 22 22" fill="none" xmlns="http://www.w3.org/2000/svg">
<path d="M10.659 0.0905283C10.7629 0.0312036 10.8804 0 11 0C11.1196 0 11.2371 0.0312036 11.341 0.0905283L16.4972 3.03715C16.6025 3.09726 16.6899 3.18411 16.7508 3.28891C16.8116 3.3937 16.8437 3.51272 16.8438 3.6339V9.12703L21.6535 11.877C21.7583 11.9369 21.8455 12.0233 21.9064 12.1276C21.9672 12.2319 21.9995 12.3503 22 12.471V18.3643C22 18.4855 21.9679 18.6045 21.907 18.7093C21.8462 18.8141 21.7587 18.9009 21.6535 18.961L16.4972 21.9077C16.3934 21.967 16.2759 21.9982 16.1562 21.9982C16.0366 21.9982 15.9191 21.967 15.8152 21.9077L11 19.1577L6.18475 21.909C6.08089 21.9684 5.96336 21.9996 5.84375 21.9996C5.72414 21.9996 5.60661 21.9684 5.50275 21.909L0.3465 18.9624C0.241275 18.9023 0.153807 18.8154 0.0929576 18.7106C0.032108 18.6059 3.90872e-05 18.4868 0 18.3657L0 12.4724C3.90872e-05 12.3512 0.032108 12.2322 0.0929576 12.1274C0.153807 12.0226 0.241275 11.9358 0.3465 11.8757L5.15625 9.12703V3.6339C5.15629 3.51272 5.18836 3.3937 5.24921 3.28891C5.31006 3.18411 5.39753 3.09726 5.50275 3.03715L10.659 0.0905283ZM5.84375 10.3178L2.0735 12.4724L5.84375 14.627L9.614 12.4724L5.84375 10.3178ZM10.3125 13.6577L6.53125 15.8178V20.127L10.3125 17.9669V13.6577ZM11.6875 17.9669L15.4688 20.127V15.8178L11.6875 13.6577V17.9669ZM12.386 12.4724L16.1562 14.627L19.9265 12.4724L16.1562 10.3178L12.386 12.4724ZM15.4688 9.12703V4.81778L11.6875 6.97928V11.2885L15.4688 9.12703ZM10.3125 11.2885V6.97928L6.53125 4.81778V9.12703L10.3125 11.2885ZM7.22975 3.6339L11 5.78853L14.7702 3.6339L11 1.47928L7.22975 3.6339ZM20.625 13.6577L16.8438 15.8178V20.127L20.625 17.9669V13.6577ZM5.15625 20.127V15.8178L1.375 13.6577V17.9669L5.15625 20.127Z" fill="#B0B0B0"/>
</svg>
